<svg xmlns="http://www.w3.org/2000/svg" width="800" height="800" viewBox="0 0 800 800"><defs><style>.cls-1{isolation:isolate;}.cls-2{fill:#77828b;}.cls-3{fill:#949ea8;}.cls-4{fill:#282827;}.cls-5{fill:#1e1e1e;}.cls-6{fill:#ffe052;}.cls-7{fill:#fdc140;}.cls-8{fill:#faae5f;}.cls-9{fill:#f69245;}.cls-10{fill:#7f3819;}.cls-11,.cls-13{fill:#8f4221;}.cls-12{fill:#cf6e3b;}.cls-13{opacity:0.33;}.cls-13,.cls-34{mix-blend-mode:multiply;}.cls-14{fill:#c65f2d;}.cls-15{fill:#b45627;}.cls-16{fill:#7fb89e;}.cls-17{fill:#96d1b4;}.cls-18{fill:#61a383;}.cls-19{fill:#fbb53d;}.cls-20{fill:#fcc068;}.cls-21{fill:#ef7237;}.cls-22{fill:#ec9141;}.cls-23{fill:#ffe2a3;}.cls-24{fill:#f7d48d;}.cls-25{fill:#92a23a;}.cls-26{fill:#879735;}.cls-27{fill:#f7cf9b;}.cls-28{fill:#f7e3cc;}.cls-29{fill:#f1c48e;}.cls-30{fill:#b1bb32;}.cls-31{fill:#723112;}.cls-32{fill:#dca98b;}.cls-33{fill:#fcf5c9;}.cls-34{fill:#d0d2d3;opacity:0.71;}.cls-35{fill:#ec5224;}.cls-36{fill:#dd4d22;}.cls-37{fill:#f1f1f2;}.cls-38{fill:#fff;}.cls-39{fill:#b3bbc0;}.cls-40{fill:#3b4e5b;}.cls-41{fill:#618493;}</style></defs><title>icon</title><g class="cls-1"><g id="Objects"><path class="cls-2" d="M781.5589,734.4817H18.39A18.39,18.39,0,0,1,0,716.0913H799.9491A18.39,18.39,0,0,1,781.5589,734.4817Z"/><polygon class="cls-3" points="800 716.091 0 716.091 40.841 673.798 759.159 673.798 800 716.091"/><path class="cls-4" d="M737.9269,694.5249H704.5976a6.7458,6.7458,0,0,1,6.2806-6.7316v-8.7561a4.6546,4.6546,0,0,1,4.0852-4.622V655.6468a3.2425,3.2425,0,0,1,3.2439-3.2438h.4147V470.3909h5.2805V652.403h.4024a3.2451,3.2451,0,0,1,3.2562,3.2438v18.7684a4.6546,4.6546,0,0,1,4.0852,4.622v8.7561A6.7458,6.7458,0,0,1,737.9269,694.5249Z"/><path class="cls-5" d="M737.9269,694.5249H704.5976a6.7458,6.7458,0,0,1,6.2806-6.7316v-8.7561a4.5934,4.5934,0,0,1,1.5-3.4148c5.4757,8.1709,13.0611,12.5,18.2683,9.927a6.4477,6.4477,0,0,0,1-.61v2.8537A6.7458,6.7458,0,0,1,737.9269,694.5249Z"/><rect class="cls-5" x="718.622" y="470.3909" width="5.2806" height="2.8415"/><path class="cls-4" d="M726.2917,472.0128h-10.061a5.4878,5.4878,0,0,1-5.4878-5.4878H731.78A5.4878,5.4878,0,0,1,726.2917,472.0128Z"/><path class="cls-6" d="M738.4635,451.33c.1341,6.0975-2.3294,11.8292-6.4635,15.0244l-.22.1707H710.7439c-4.6219-2.9146-7.5122-8.8659-7.5122-15.3049,0-.378.0123-.7683.0366-1.1463l1.0122-18.6587.3171-5.9755h33.3293l.1219,5.9755Z"/><path class="cls-7" d="M738.4146,453.2323c-.3536,5.3659-2.7195,10.2682-6.4146,13.122l-.22.1707H710.7439c-4.0122-2.5366-6.7316-7.3537-7.3659-12.8049a22.8713,22.8713,0,0,0,35.0366-.4878Z"/><path class="cls-4" d="M738.2073,428.9007H704.3151l2.8384-10.4507c1.3665-5.0315,7.0829-8.6323,13.7039-8.6323h.8076c6.621,0,12.3374,3.6008,13.7039,8.6323Z"/><path class="cls-5" d="M735.3689,418.45a10.1081,10.1081,0,0,0-2.9718-4.7323c-.8814,3.8713-7.0413,6.8723-14.5231,6.8723a22.1167,22.1167,0,0,1-10.6187-2.4478c-.032.1033-.0735.2033-.1018.3078l-2.8384,10.4507h33.8922Z"/><polygon class="cls-7" points="738.049 431.415 704.28 431.415 704.598 425.44 737.927 425.44 738.049 431.415"/><path class="cls-4" d="M741.7232,428.9722h-40.924a5.5447,5.5447,0,0,1,5.3753-6.9044h30.1734a5.5447,5.5447,0,0,1,5.3753,6.9044Z"/><path class="cls-5" d="M739.2976,422.9193c-3.74,2.3192-13.4169,3.9716-24.7692,3.9716a100.48,100.48,0,0,1-13.6582-.8771,5.4933,5.4933,0,0,0-.071,2.9584h40.924A5.54,5.54,0,0,0,739.2976,422.9193Z"/><path class="cls-4" d="M91.3822,694.5249H58.0528a6.7458,6.7458,0,0,1,6.2806-6.7316v-8.7561a4.6546,4.6546,0,0,1,4.0853-4.622V655.6468a3.2425,3.2425,0,0,1,3.2439-3.2438h.4146V470.3909h5.2806V652.403H77.76a3.2451,3.2451,0,0,1,3.2562,3.2438v18.7684a4.6547,4.6547,0,0,1,4.0853,4.622v8.7561A6.7458,6.7458,0,0,1,91.3822,694.5249Z"/><path class="cls-5" d="M91.3822,694.5249H58.0528a6.7458,6.7458,0,0,1,6.2806-6.7316v-8.7561a4.5932,4.5932,0,0,1,1.5-3.4148c5.4755,8.1709,13.061,12.5,18.2682,9.927a6.4524,6.4524,0,0,0,1-.61v2.8537A6.7458,6.7458,0,0,1,91.3822,694.5249Z"/><rect class="cls-5" x="72.0772" y="470.3909" width="5.2806" height="2.8415"/><path class="cls-4" d="M79.7469,472.0128H69.686a5.4877,5.4877,0,0,1-5.4878-5.4878H85.2348A5.4878,5.4878,0,0,1,79.7469,472.0128Z"/><path class="cls-6" d="M91.9188,451.33c.1341,6.0975-2.3294,11.8292-6.4636,15.0244l-.22.1707H64.1991c-4.6219-2.9146-7.512-8.8659-7.512-15.3049,0-.378.0122-.7683.0364-1.1463l1.0122-18.6587.3171-5.9755H91.3822l.1218,5.9755Z"/><path class="cls-7" d="M91.87,453.2323c-.3536,5.3659-2.7195,10.2682-6.4147,13.122l-.22.1707H64.1991c-4.0122-2.5366-6.7315-7.3537-7.3658-12.8049a22.8713,22.8713,0,0,0,35.0366-.4878Z"/><path class="cls-4" d="M91.6626,428.9007H57.77L60.6088,418.45c1.3664-5.0315,7.0829-8.6323,13.7039-8.6323H75.12c6.621,0,12.3375,3.6008,13.7041,8.6323Z"/><path class="cls-5" d="M88.8241,418.45a10.1057,10.1057,0,0,0-2.9718-4.7323c-.8813,3.8713-7.0412,6.8723-14.523,6.8723a22.1161,22.1161,0,0,1-10.6187-2.4478c-.0321.1033-.0735.2033-.1018.3078L57.77,428.9007H91.6626Z"/><polygon class="cls-7" points="91.504 431.415 57.736 431.415 58.053 425.44 91.382 425.44 91.504 431.415"/><path class="cls-4" d="M95.1785,428.9722H54.2545a5.5446,5.5446,0,0,1,5.3754-6.9044H89.8032a5.5446,5.5446,0,0,1,5.3753,6.9044Z"/><path class="cls-5" d="M92.7528,422.9193c-3.7395,2.3192-13.4168,3.9716-24.769,3.9716a100.4761,100.4761,0,0,1-13.6582-.8771,5.4923,5.4923,0,0,0-.0711,2.9584H95.1784A5.54,5.54,0,0,0,92.7528,422.9193Z"/><rect class="cls-8" x="124.4928" y="287.8879" width="551.0245" height="373.9399"/><rect class="cls-9" x="544.1177" y="396.9474" width="42.7318" height="14.1602" transform="translate(1130.9672 808.0551) rotate(180)"/><rect class="cls-9" x="501.7254" y="376.656" width="42.7318" height="14.1602" transform="translate(1046.1825 767.4722) rotate(180)"/><rect class="cls-9" x="637.7735" y="327.0717" width="41.1999" height="17.0732"/><rect class="cls-9" x="638.6669" y="378.5229" width="41.1999" height="17.0732"/><rect class="cls-9" x="611.4744" y="352.8848" width="49.6596" height="17.0732"/><rect class="cls-9" x="638.6669" y="443.7566" width="41.1999" height="17.0732"/><rect class="cls-9" x="638.6669" y="503.4498" width="41.1999" height="17.0732"/><rect class="cls-9" x="611.4744" y="409.5818" width="49.6596" height="17.0732"/><rect class="cls-9" x="623.451" y="471.8278" width="40.0959" height="17.0732"/><rect class="cls-9" x="617.7256" y="535.0982" width="40.0958" height="17.0732"/><rect class="cls-9" x="121.4321" y="327.0717" width="41.1999" height="17.0732" transform="translate(284.064 671.2166) rotate(180)"/><rect class="cls-9" x="120.5388" y="378.5229" width="41.1998" height="17.0732" transform="translate(282.2773 774.119) rotate(180)"/><rect class="cls-9" x="139.2716" y="352.8848" width="49.6595" height="17.0732" transform="translate(328.2027 722.8427) rotate(180)"/><rect class="cls-9" x="120.5388" y="443.7566" width="41.1998" height="17.0732" transform="translate(282.2773 904.5863) rotate(180)"/><rect class="cls-9" x="120.5388" y="503.4498" width="41.1998" height="17.0732" transform="translate(282.2773 1023.9727) rotate(180)"/><rect class="cls-9" x="139.2716" y="409.5818" width="49.6595" height="17.0732" transform="translate(328.2027 836.2368) rotate(180)"/><rect class="cls-9" x="136.8587" y="471.8278" width="40.0959" height="17.0732" transform="translate(313.8132 960.7288) rotate(180)"/><rect class="cls-9" x="142.584" y="535.0982" width="40.0959" height="17.0732" transform="translate(325.2639 1087.2695) rotate(180)"/><path class="cls-10" d="M684.7611,585.2059V674.84H113.2123V585.2059a11.1744,11.1744,0,0,1,11.1831-11.183H673.5782a11.3461,11.3461,0,0,1,1.9391.1708,10.7508,10.7508,0,0,1,2.7073.8414A11.1689,11.1689,0,0,1,684.7611,585.2059Z"/><path class="cls-11" d="M122.378,574.0229h4.6545a0,0,0,0,1,0,0V674.836a0,0,0,0,1,0,0H113.2113a0,0,0,0,1,0,0V583.19A9.1667,9.1667,0,0,1,122.378,574.0229Z"/><rect class="cls-11" x="129.6748" y="574.0229" width="13.8212" height="100.813"/><rect class="cls-11" x="146.1382" y="574.0229" width="13.8212" height="100.813"/><rect class="cls-11" x="162.6016" y="574.0229" width="13.8212" height="100.813"/><rect class="cls-11" x="179.065" y="574.0229" width="13.8212" height="100.813"/><rect class="cls-11" x="195.5284" y="574.0229" width="13.8212" height="100.813"/><rect class="cls-11" x="211.9918" y="574.0229" width="13.8212" height="100.813"/><rect class="cls-11" x="228.4552" y="574.0229" width="13.8212" height="100.813"/><rect class="cls-11" x="244.9187" y="574.0229" width="13.8212" height="100.813"/><rect class="cls-11" x="261.3821" y="574.0229" width="13.8212" height="100.813"/><rect class="cls-11" x="277.8455" y="574.0229" width="13.8212" height="100.813"/><rect class="cls-11" x="294.3089" y="574.0229" width="13.8212" height="100.813"/><rect class="cls-11" x="310.7723" y="574.0229" width="13.8212" height="100.813"/><rect class="cls-11" x="327.2357" y="574.0229" width="13.8212" height="100.813"/><rect class="cls-11" x="343.6991" y="574.0229" width="13.8212" height="100.813"/><rect class="cls-11" x="360.1625" y="574.0229" width="13.8212" height="100.813"/><rect class="cls-11" x="376.626" y="574.0229" width="13.8212" height="100.813"/><rect class="cls-11" x="393.0894" y="574.0229" width="13.8212" height="100.813"/><rect class="cls-11" x="409.5528" y="574.0229" width="13.8212" height="100.813"/><rect class="cls-11" x="426.0162" y="574.0229" width="13.8212" height="100.813"/><rect class="cls-11" x="442.4796" y="574.0229" width="13.8212" height="100.813"/><rect class="cls-11" x="458.943" y="574.0229" width="13.8212" height="100.813"/><rect class="cls-11" x="475.4064" y="574.0229" width="13.8212" height="100.813"/><rect class="cls-11" x="491.8699" y="574.0229" width="13.8212" height="100.813"/><rect class="cls-11" x="508.3333" y="574.0229" width="13.8212" height="100.813"/><rect class="cls-11" x="524.7967" y="574.0229" width="13.8212" height="100.813"/><rect class="cls-11" x="541.2601" y="574.0229" width="13.8212" height="100.813"/><rect class="cls-11" x="557.7235" y="574.0229" width="13.8212" height="100.813"/><rect class="cls-11" x="574.1869" y="574.0229" width="13.8212" height="100.813"/><rect class="cls-11" x="590.6513" y="574.0229" width="13.8172" height="100.8171"/><rect class="cls-11" x="607.1147" y="574.0229" width="13.8172" height="100.8171"/><rect class="cls-11" x="623.5782" y="574.0229" width="13.8172" height="100.8171"/><rect class="cls-11" x="640.0416" y="574.0229" width="13.8172" height="100.8171"/><rect class="cls-11" x="656.505" y="574.0229" width="13.8172" height="100.8171"/><path class="cls-11" d="M686.7856,585.2059V674.84H672.9684V574.0229h2.6344a11.171,11.171,0,0,1,11.1828,11.183Z"/><polygon class="cls-12" points="130.691 575.039 143.496 575.039 143.496 574.023 129.675 574.023 129.675 674.836 130.691 674.836 130.691 575.039"/><polygon class="cls-12" points="147.154 575.039 159.959 575.039 159.959 574.023 146.138 574.023 146.138 674.836 147.154 674.836 147.154 575.039"/><polygon class="cls-12" points="163.618 575.039 176.423 575.039 176.423 574.023 162.602 574.023 162.602 674.836 163.618 674.836 163.618 575.039"/><polygon class="cls-12" points="180.081 575.039 192.886 575.039 192.886 574.023 179.065 574.023 179.065 674.836 180.081 674.836 180.081 575.039"/><polygon class="cls-12" points="196.545 575.039 209.349 575.039 209.349 574.023 195.528 574.023 195.528 674.836 196.545 674.836 196.545 575.039"/><polygon class="cls-12" points="213.008 575.039 225.813 575.039 225.813 574.023 211.992 574.023 211.992 674.836 213.008 674.836 213.008 575.039"/><polygon class="cls-12" points="229.471 575.039 242.276 575.039 242.276 574.023 228.455 574.023 228.455 674.836 229.471 674.836 229.471 575.039"/><polygon class="cls-12" points="245.935 575.039 258.74 575.039 258.74 574.023 244.918 574.023 244.918 674.836 245.935 674.836 245.935 575.039"/><polygon class="cls-12" points="262.398 575.039 275.203 575.039 275.203 574.023 261.382 574.023 261.382 674.836 262.398 674.836 262.398 575.039"/><polygon class="cls-12" points="278.861 575.039 291.666 575.039 291.666 574.023 277.845 574.023 277.845 674.836 278.861 674.836 278.861 575.039"/><polygon class="cls-12" points="295.325 575.039 308.13 575.039 308.13 574.023 294.309 574.023 294.309 674.836 295.325 674.836 295.325 575.039"/><polygon class="cls-12" points="311.788 575.039 324.593 575.039 324.593 574.023 310.772 574.023 310.772 674.836 311.788 674.836 311.788 575.039"/><polygon class="cls-12" points="328.251 575.039 341.056 575.039 341.056 574.023 327.235 574.023 327.235 674.836 328.251 674.836 328.251 575.039"/><polygon class="cls-12" points="344.715 575.039 357.52 575.039 357.52 574.023 343.699 574.023 343.699 674.836 344.715 674.836 344.715 575.039"/><polygon class="cls-12" points="361.178 575.039 373.983 575.039 373.983 574.023 360.162 574.023 360.162 674.836 361.178 674.836 361.178 575.039"/><polygon class="cls-12" points="377.642 575.039 390.446 575.039 390.446 574.023 376.625 574.023 376.625 674.836 377.642 674.836 377.642 575.039"/><polygon class="cls-12" points="394.105 575.039 406.91 575.039 406.91 574.023 393.089 574.023 393.089 674.836 394.105 674.836 394.105 575.039"/><polygon class="cls-12" points="410.568 575.039 423.373 575.039 423.373 574.023 409.552 574.023 409.552 674.836 410.568 674.836 410.568 575.039"/><polygon class="cls-12" points="427.032 575.039 439.836 575.039 439.836 574.023 426.015 574.023 426.015 674.836 427.032 674.836 427.032 575.039"/><polygon class="cls-12" points="443.495 575.039 456.3 575.039 456.3 574.023 442.479 574.023 442.479 674.836 443.495 674.836 443.495 575.039"/><polygon class="cls-12" points="459.958 575.039 472.763 575.039 472.763 574.023 458.942 574.023 458.942 674.836 459.958 674.836 459.958 575.039"/><polygon class="cls-12" points="476.422 575.039 489.227 575.039 489.227 574.023 475.406 574.023 475.406 674.836 476.422 674.836 476.422 575.039"/><polygon class="cls-12" points="492.885 575.039 505.69 575.039 505.69 574.023 491.869 574.023 491.869 674.836 492.885 674.836 492.885 575.039"/><polygon class="cls-12" points="509.348 575.039 522.153 575.039 522.153 574.023 508.332 574.023 508.332 674.836 509.348 674.836 509.348 575.039"/><polygon class="cls-12" points="525.812 575.039 538.617 575.039 538.617 574.023 524.796 574.023 524.796 674.836 525.812 674.836 525.812 575.039"/><polygon class="cls-12" points="542.275 575.039 555.08 575.039 555.08 574.023 541.259 574.023 541.259 674.836 542.275 674.836 542.275 575.039"/><polygon class="cls-12" points="558.739 575.039 571.543 575.039 571.543 574.023 557.722 574.023 557.722 674.836 558.739 674.836 558.739 575.039"/><polygon class="cls-12" points="575.202 575.039 588.007 575.039 588.007 574.023 574.186 574.023 574.186 674.836 575.202 674.836 575.202 575.039"/><polygon class="cls-12" points="591.665 575.039 604.47 575.039 604.47 574.023 590.649 574.023 590.649 674.836 591.665 674.836 591.665 575.039"/><polygon class="cls-12" points="620.932 574.023 620.932 575.035 608.127 575.035 608.127 674.84 607.115 674.84 607.115 574.023 620.932 574.023"/><polygon class="cls-12" points="637.395 574.023 637.395 575.035 624.59 575.035 624.59 674.84 623.578 674.84 623.578 574.023 637.395 574.023"/><polygon class="cls-12" points="653.859 574.023 653.859 575.035 641.054 575.035 641.054 674.84 640.042 674.84 640.042 574.023 653.859 574.023"/><polygon class="cls-12" points="670.322 574.023 670.322 575.035 657.517 575.035 657.517 674.84 656.505 674.84 656.505 574.023 670.322 574.023"/><path class="cls-12" d="M680.2611,575.0351h-6.28V674.84h-1.0123V574.0229h2.6344A11.21,11.21,0,0,1,680.2611,575.0351Z"/><path class="cls-13" d="M686.7856,585.2059V674.84H597.3221l-5.6585-1.5122-1.0123-.2683-2.6462-.7073L575.2,668.9376l-1.0123-.2683-2.6462-.7073-12.8049-3.4147-1.0123-.2683-2.6462-.7073-6.5245-1.7439-6.28-1.6829-1.0123-.2683-2.6462-.7073L525.81,655.7546l-1.0123-.2683-2.6463-.7073-12.8048-3.4146-1.0123-.2683L505.92,650.45V406.5473H634.5538l40.9635,24.39V574.0229h.0855a11.171,11.171,0,0,1,11.1828,11.183Z"/><rect class="cls-11" x="508.5316" y="406.5433" width="126.0162" height="243.9024"/><rect class="cls-14" x="519.2633" y="417.9254" width="104.5528" height="232.5204"/><rect class="cls-15" x="519.2633" y="417.9254" width="104.5528" height="232.5204"/><rect class="cls-14" x="522.5407" y="419.7546" width="97.9979" height="230.687"/><rect class="cls-16" x="529.7124" y="426.8644" width="83.6583" height="112.1951"/><polygon class="cls-17" points="553.761 426.864 529.712 455.438 529.712 446.925 546.59 426.864 553.761 426.864"/><polygon class="cls-17" points="563.895 426.864 529.712 467.486 529.712 462.23 559.481 426.864 563.895 426.864"/><polygon class="cls-17" points="608.53 426.864 529.712 520.523 529.712 508.181 598.139 426.864 608.53 426.864"/><polygon class="cls-17" points="613.371 430.938 613.371 438.547 529.712 537.962 529.712 530.364 613.371 430.938"/><polygon class="cls-17" points="613.371 482.828 613.371 491.523 573.371 539.06 566.066 539.06 613.371 482.828"/><polygon class="cls-17" points="613.371 498.462 613.371 503.816 583.725 539.06 579.213 539.06 613.371 498.462"/><rect class="cls-18" x="529.7124" y="482.964" width="83.6583" height="5.2072"/><rect class="cls-18" x="529.7124" y="426.8684" width="83.6545" height="2.439"/><rect class="cls-14" x="568.938" y="424.4294" width="5.2032" height="117.0732"/><rect class="cls-14" x="568.938" y="435.1001" width="5.2032" height="95.7317" transform="translate(1054.5056 -88.5736) rotate(90)"/><rect class="cls-19" x="529.7124" y="550.4498" width="5.7805" height="26.9268"/><polygon class="cls-20" points="535.493 554.242 535.493 558.133 529.712 568.011 529.712 564.12 535.493 554.242"/><polygon class="cls-20" points="535.493 565.072 535.493 568.938 530.554 577.377 529.712 577.377 529.712 574.95 535.493 565.072"/><polygon class="cls-21" points="546.347 563.913 604.728 563.913 606.787 604.542 606.787 561.295 544.287 561.295 544.287 604.542 546.347 563.913"/><rect class="cls-22" x="124.4928" y="292.4838" width="551.0245" height="16.6527"/><rect class="cls-23" x="111.81" y="286.9329" width="576.3779" height="16.6527"/><rect class="cls-24" x="111.81" y="286.9329" width="576.3779" height="4.1632"/><rect class="cls-23" x="95.3506" y="255.7093" width="609.2988" height="31.2237"/><path class="cls-25" d="M470.9929,643.0473a24.8592,24.8592,0,0,1-45.4391,13.939,31.61,31.61,0,0,1-56.5854-5.8292,31.61,31.61,0,0,1-57.6219-4.0244,31.61,31.61,0,0,1-57.622-4.0244,31.5954,31.5954,0,0,1-52.1463,5.4512,31.592,31.592,0,0,1-57.1706-15.0488,32.66,32.66,0,0,1-.1709-3.2927,31.4855,31.4855,0,0,1,9.5-22.5609,16.7414,16.7414,0,0,1,20.1952-24.6464,31.6109,31.6109,0,0,1,55.2439-3.1829,16.7128,16.7128,0,0,1,26.28,1.2195,16.6748,16.6748,0,0,1,20,6.5976,12.9633,12.9633,0,0,1,20.0487,1.7683,12.9519,12.9519,0,0,1,20.8416,3.6463,15.76,15.76,0,0,1,30.2927,1.0488,10.3608,10.3608,0,0,1,14.8781,6.8537,16.6982,16.6982,0,0,1,20.4633-1.4513,24.1777,24.1777,0,0,1,48.1829-.8536h.1219a16.712,16.712,0,0,1,16.439,13.72,6.49,6.49,0,0,1,2.6709-.5976,6.41,6.41,0,0,1,6.4024,6.4025,6.5426,6.5426,0,0,1-.3049,1.8414,24.94,24.94,0,0,1,13.5854,13.4512,24.0183,24.0183,0,0,1,1.4511,4.8293A24.349,24.349,0,0,1,470.9929,643.0473Z"/><path class="cls-25" d="M222.0529,567.5289a6.4023,6.4023,0,1,0-6.4023-6.4023A6.4024,6.4024,0,0,0,222.0529,567.5289Z"/><path class="cls-25" d="M441.8512,594.945a5.2667,5.2667,0,1,0-5.2666-5.2667A5.2666,5.2666,0,0,0,441.8512,594.945Z"/><path class="cls-25" d="M365.1929,588.9711a3.3864,3.3864,0,1,0-3.3864-3.3863A3.3865,3.3865,0,0,0,365.1929,588.9711Z"/><circle class="cls-25" cx="464.3913" cy="608.7517" r="3.3863"/><path class="cls-25" d="M141.1387,599.92a3.3864,3.3864,0,1,0,3.3862,3.3864A3.3865,3.3865,0,0,0,141.1387,599.92Z"/><path class="cls-26" d="M470.9929,643.0473a24.8592,24.8592,0,0,1-45.4391,13.939,31.61,31.61,0,0,1-56.5854-5.8292,31.61,31.61,0,0,1-57.6219-4.0244,31.61,31.61,0,0,1-57.622-4.0244,31.5954,31.5954,0,0,1-52.1463,5.4512,31.6057,31.6057,0,0,1-55.9144-8.9268,10.3857,10.3857,0,0,1,5.3412-1.4634H468.92a8.7859,8.7859,0,0,1,1.61.1341A24.349,24.349,0,0,1,470.9929,643.0473Z"/><path class="cls-27" d="M468.9174,643.0465H151a10.9475,10.9475,0,0,0-10.7793,11.1084v24.9184H479.6967V654.1549A10.9475,10.9475,0,0,0,468.9174,643.0465Z"/><path class="cls-28" d="M468.9175,643.0465H151a10.9475,10.9475,0,0,0-10.7793,11.1084v.7679A10.9475,10.9475,0,0,1,151,643.8144H468.9175a10.9474,10.9474,0,0,1,10.7791,11.1084v-.7679A10.9474,10.9474,0,0,0,468.9175,643.0465Z"/><path class="cls-29" d="M479.7,654.1571v24.9146H140.2245V661.34c35.6433,6.0732,88.6588,9.9268,147.84,9.9268,93.7,0,171.9212-9.6585,190.2753-22.5122A11.3287,11.3287,0,0,1,479.7,654.1571Z"/><path class="cls-30" d="M205.818,597.397a5.0813,5.0813,0,1,1-5.0812-5.0814A5.0812,5.0812,0,0,1,205.818,597.397Z"/><path class="cls-30" d="M277.8451,605.3654a5.0813,5.0813,0,1,1-5.0812-5.0814A5.0812,5.0812,0,0,1,277.8451,605.3654Z"/><path class="cls-30" d="M366.8878,626.5544a5.0813,5.0813,0,1,1-5.0813-5.0812A5.0813,5.0813,0,0,1,366.8878,626.5544Z"/><path class="cls-30" d="M424.2969,590.8551a3.6208,3.6208,0,1,1-3.6208-3.6208A3.6208,3.6208,0,0,1,424.2969,590.8551Z"/><circle class="cls-30" cx="449.3902" cy="623.8013" r="3.6209"/><circle class="cls-30" cx="233.0376" cy="620.845" r="2.753"/><circle class="cls-30" cx="301.219" cy="626.5544" r="2.753"/><circle class="cls-30" cx="390.4472" cy="606.6929" r="2.753"/><path class="cls-30" d="M419.2157,626.5544a2.7531,2.7531,0,1,1-2.7532-2.7531A2.7531,2.7531,0,0,1,419.2157,626.5544Z"/><circle class="cls-30" cx="297.3221" cy="597.397" r="2.753"/><circle class="cls-30" cx="215.6506" cy="577.3766" r="2.753"/><circle class="cls-30" cx="169.5122" cy="629.3074" r="2.7531"/><rect class="cls-31" x="153.4299" y="369.9579" width="319.3333" height="182.9268"/><rect class="cls-11" x="153.4299" y="367.5189" width="319.3333" height="182.9268"/><rect class="cls-16" x="165.1879" y="378.901" width="295.8171" height="160.1585"/><polygon class="cls-17" points="262.822 378.901 165.188 442.694 165.188 418.462 225.737 378.901 262.822 378.901"/><polygon class="cls-17" points="461.005 378.901 461.005 379.889 217.383 539.06 175.847 539.06 420.993 378.901 461.005 378.901"/><polygon class="cls-17" points="461.005 387.06 461.005 400.511 248.932 539.06 228.347 539.06 461.005 387.06"/><polygon class="cls-17" points="409.054 378.901 165.188 538.242 165.188 530.169 396.7 378.901 409.054 378.901"/><polygon class="cls-17" points="297.322 378.901 165.188 465.23 165.188 453.913 280.017 378.901 297.322 378.901"/><polygon class="cls-17" points="318.481 378.901 165.188 479.06 165.188 472.791 308.895 378.901 318.481 378.901"/><rect class="cls-18" x="165.1834" y="378.901" width="295.8263" height="4.2683"/><polygon class="cls-32" points="640.776 643.06 640.776 651.864 502.313 651.864 502.313 643.06 508.533 636.62 634.545 636.62 640.776 643.06"/><polygon class="cls-33" points="640.776 643.06 502.313 643.06 508.533 636.62 634.545 636.62 640.776 643.06"/><polygon class="cls-32" points="647.961 656.762 647.961 666.481 495.128 666.481 495.128 656.762 501.993 649.655 641.083 649.655 647.961 656.762"/><polygon class="cls-33" points="647.961 656.762 495.128 656.762 501.993 649.655 641.083 649.655 647.961 656.762"/><polygon class="cls-32" points="655.407 671.269 655.407 681.934 487.683 681.934 487.683 671.269 495.217 663.469 647.858 663.469 655.407 671.269"/><polygon class="cls-33" points="655.407 671.269 487.683 671.269 495.217 663.469 647.858 663.469 655.407 671.269"/><path class="cls-34" d="M472.4294,352.8848H154.7811l-6.1776,55.8258,3.2952,22.17c1.24,8.3406,7.5753,15.1019,14.1512,15.1019h2.9955c6.1154,0,10.2785-5.85,9.8351-13.3779,1.7942,7.5276,7.6962,13.3779,13.8118,13.3779h2.9955c6.1155,0,10.2785-5.85,9.8351-13.3779,1.7943,7.5276,7.6962,13.3779,13.8117,13.3779H222.33c6.1155,0,10.2785-5.85,9.8352-13.3779,1.7942,7.5276,7.6963,13.3779,13.8118,13.3779h2.9955c6.1155,0,10.2785-5.8507,9.835-13.3783,1.7941,7.5276,7.6963,13.3783,13.8119,13.3783h2.9954c6.1156,0,10.2786-5.8507,9.8351-13.3783,1.7942,7.5276,7.6964,13.3783,13.8118,13.3783h2.9955c6.1156,0,10.2787-5.8507,9.8352-13.3783,1.794,7.5276,7.6962,13.3783,13.8118,13.3783H328.9c6.1156,0,10.2785-5.8507,9.835-13.3783,1.7941,7.5276,7.6963,13.3783,13.8119,13.3783h2.9955c6.1155,0,10.2785-5.85,9.8351-13.3779,1.7943,7.5276,7.6964,13.3779,13.8119,13.3779h2.9954c6.1155,0,10.2786-5.85,9.8352-13.3779,1.7942,7.5276,7.6962,13.3779,13.8118,13.3779h2.9955c6.1155,0,10.2785-5.85,9.8351-13.3779,1.7943,7.5276,7.6963,13.3779,13.8118,13.3779H435.47c6.1156,0,10.2786-5.8507,9.835-13.3783,1.7942,7.5276,7.6964,13.3783,13.812,13.3783h2.9955c6.1154,0,10.2785-5.8507,9.835-13.3783,1.7941,7.5276,7.6963,13.3783,13.8119,13.3783h2.9954c6.5758,0,10.9017-6.7613,9.6619-15.1019l-3.295-22.17h.08Z"/><polygon class="cls-35" points="486.512 396.848 140.316 396.848 154.774 352.885 472.054 352.885 486.512 396.848"/><path class="cls-36" d="M140.3157,396.8476h26.7776a0,0,0,0,1,0,0v19.5992a9.7521,9.7521,0,0,1-9.7521,9.7521h-7.2734a9.7521,9.7521,0,0,1-9.7521-9.7521V396.8476A0,0,0,0,1,140.3157,396.8476Z"/><path class="cls-37" d="M166.9273,396.8476h26.7776a0,0,0,0,1,0,0v19.5992a9.7521,9.7521,0,0,1-9.7521,9.7521h-7.2734a9.7521,9.7521,0,0,1-9.7521-9.7521V396.8476A0,0,0,0,1,166.9273,396.8476Z"/><path class="cls-36" d="M193.5389,396.8476h26.7776a0,0,0,0,1,0,0v19.5992a9.7521,9.7521,0,0,1-9.7521,9.7521h-7.2735a9.752,9.752,0,0,1-9.752-9.752V396.8476A0,0,0,0,1,193.5389,396.8476Z"/><path class="cls-37" d="M220.15,396.8476H246.928a0,0,0,0,1,0,0v19.5992a9.7521,9.7521,0,0,1-9.7521,9.7521h-7.2735a9.7521,9.7521,0,0,1-9.7521-9.7521V396.8476a0,0,0,0,1,0,0Z"/><path class="cls-36" d="M246.7619,396.8476H273.54a0,0,0,0,1,0,0v19.5992a9.7521,9.7521,0,0,1-9.7521,9.7521H256.514a9.7521,9.7521,0,0,1-9.7521-9.7521V396.8476A0,0,0,0,1,246.7619,396.8476Z"/><path class="cls-37" d="M273.3735,396.8476h26.7776a0,0,0,0,1,0,0v19.5992a9.7521,9.7521,0,0,1-9.7521,9.7521h-7.2734a9.7521,9.7521,0,0,1-9.7521-9.7521V396.8476A0,0,0,0,1,273.3735,396.8476Z"/><path class="cls-36" d="M299.9851,396.8476h26.7776a0,0,0,0,1,0,0v19.5992a9.7521,9.7521,0,0,1-9.7521,9.7521h-7.2734a9.7521,9.7521,0,0,1-9.7521-9.7521V396.8476A0,0,0,0,1,299.9851,396.8476Z"/><path class="cls-37" d="M326.5967,396.8476h26.7776a0,0,0,0,1,0,0v19.5992a9.7521,9.7521,0,0,1-9.7521,9.7521h-7.2735a9.752,9.752,0,0,1-9.752-9.752V396.8476A0,0,0,0,1,326.5967,396.8476Z"/><path class="cls-36" d="M353.2082,396.8476h26.7777a0,0,0,0,1,0,0v19.5992a9.7521,9.7521,0,0,1-9.7521,9.7521H362.96a9.7521,9.7521,0,0,1-9.7521-9.7521V396.8476A0,0,0,0,1,353.2082,396.8476Z"/><path class="cls-37" d="M379.82,396.8476h26.7776a0,0,0,0,1,0,0v19.5992a9.7521,9.7521,0,0,1-9.7521,9.7521h-7.2734a9.7521,9.7521,0,0,1-9.7521-9.7521V396.8476A0,0,0,0,1,379.82,396.8476Z"/><path class="cls-36" d="M406.4313,396.8476h26.7776a0,0,0,0,1,0,0v19.5992a9.7521,9.7521,0,0,1-9.7521,9.7521h-7.2734a9.7521,9.7521,0,0,1-9.7521-9.7521V396.8476A0,0,0,0,1,406.4313,396.8476Z"/><path class="cls-37" d="M433.0429,396.8476H459.82a0,0,0,0,1,0,0v19.5992a9.7521,9.7521,0,0,1-9.7521,9.7521H442.795a9.7521,9.7521,0,0,1-9.7521-9.7521V396.8476A0,0,0,0,1,433.0429,396.8476Z"/><path class="cls-36" d="M459.6545,396.8476h26.7776a0,0,0,0,1,0,0v19.5992a9.7521,9.7521,0,0,1-9.7521,9.7521h-7.2734a9.7521,9.7521,0,0,1-9.7521-9.7521V396.8476A0,0,0,0,1,459.6545,396.8476Z"/><polygon class="cls-38" points="459.537 396.848 166.884 396.848 179.106 352.885 447.315 352.885 459.537 396.848"/><polygon class="cls-35" points="432.919 396.848 193.568 396.848 203.564 352.885 422.923 352.885 432.919 396.848"/><polygon class="cls-38" points="406.404 396.848 220.224 396.848 228 352.885 398.629 352.885 406.404 396.848"/><polygon class="cls-35" points="379.842 396.848 246.7 396.848 252.26 352.885 374.281 352.885 379.842 396.848"/><polygon class="cls-38" points="353.265 396.848 273.341 396.848 276.679 352.885 349.927 352.885 353.265 396.848"/><polygon class="cls-35" points="326.601 396.848 299.918 396.848 301.032 352.885 325.487 352.885 326.601 396.848"/><path class="cls-39" d="M514.8171,147.693a121.3,121.3,0,0,0-229.6342,0H122.6455V255.9971h554.709V147.693Z"/><path class="cls-40" d="M506.4268,155.3963a111.0062,111.0062,0,0,0-212.8536,0H131.5854v92.9025H668.4146V155.3963Z"/><path class="cls-38" d="M151.1416,200.7173c0-11.4429,8.75-19.9688,20.6416-19.9688,11.7788,0,20.5855,8.47,20.5855,19.9688s-8.8067,19.9682-20.5855,19.9682C159.8916,220.6855,151.1416,212.16,151.1416,200.7173Zm37.0762,0c0-9.3672-7.0117-16.2666-16.4346-16.2666-9.48,0-16.5474,6.8994-16.5474,16.2666s7.0679,16.2661,16.5474,16.2661C181.2061,216.9834,188.2178,210.0845,188.2178,200.7173Z"/><path class="cls-38" d="M227.9912,203.2412v17.1079h-3.9824V203.6338c0-6.2261-3.2534-9.4234-8.8623-9.4234-6.3384,0-10.3208,3.9263-10.3208,10.6578v15.4809h-3.9824V190.8452h3.8139v5.4409c2.1314-3.59,6.1143-5.6655,11.2183-5.6655C223.0552,190.6206,227.9912,194.7715,227.9912,203.2412Z"/><path class="cls-38" d="M238.82,212.16V178.73h3.9824v33.0937c0,3.4776,1.6265,5.3848,4.9361,5.3848a6.9743,6.9743,0,0,0,2.6924-.5049l.28,3.31a11.2273,11.2273,0,0,1-3.59.6167C241.7368,220.6294,238.82,217.4326,238.82,212.16Z"/><path class="cls-38" d="M255.2563,181.5342a2.8745,2.8745,0,0,1,2.9166-2.8047,2.8286,2.8286,0,0,1,2.9169,2.7485,2.917,2.917,0,0,1-5.8335.0562Zm.8975,9.311h3.9824v29.5039h-3.9824Z"/><path class="cls-38" d="M298.3921,203.2412v17.1079H294.41V203.6338c0-6.2261-3.2534-9.4234-8.8623-9.4234-6.3384,0-10.3208,3.9263-10.3208,10.6578v15.4809h-3.9825V190.8452h3.814v5.4409c2.1314-3.59,6.1138-5.6655,11.2183-5.6655C293.4561,190.6206,298.3921,194.7715,298.3921,203.2412Z"/><path class="cls-38" d="M330.9844,213.2256l2.2436,2.58a14.4038,14.4038,0,0,1-11.33,4.8237c-9.1992,0-15.5375-6.2822-15.5375-15.0322s6.1142-14.9766,14.5839-14.9766c7.9087,0,13.8545,5.7773,14.1348,14.0791l-24.2314,4.7114c1.4585,4.7681,5.6093,7.6846,11.1064,7.6846A11.4685,11.4685,0,0,0,330.9844,213.2256Zm-20.7534-7.9092a8.6853,8.6853,0,0,0,.0561,1.2344l20.81-4.0386a10.0044,10.0044,0,0,0-10.1524-8.47C314.6621,194.0425,310.231,198.6416,310.231,205.3164Z"/><path class="cls-38" d="M382.7051,190.8452,369.58,220.3491h-4.0947L352.416,190.8452h4.1509l11.05,25.1289,11.1621-25.1289Z"/><path class="cls-38" d="M414.3994,190.8452v29.5039h-3.8135v-5.8335a12.7811,12.7811,0,0,1-11.3867,6.1138c-8.414,0-14.6963-6.1138-14.6963-15.0322s6.2823-14.9766,14.6963-14.9766a12.8864,12.8864,0,0,1,11.2178,5.8335v-5.6089Zm-3.9258,14.752c0-6.8994-4.7119-11.4986-10.938-11.4986-6.2822,0-10.9941,4.5992-10.9941,11.4986s4.7119,11.4985,10.9941,11.4985C405.7617,217.0957,410.4736,212.4961,410.4736,205.5972Z"/><path class="cls-38" d="M455.4063,205.5972c0,8.9746-6.2813,15.0322-14.6954,15.0322a12.8868,12.8868,0,0,1-11.2187-5.8335V231.231H425.51V190.8452h3.8144v5.8335a12.8514,12.8514,0,0,1,11.3867-6.0581C449.125,190.6206,455.4063,196.6787,455.4063,205.5972Zm-3.9825,0c0-6.8433-4.7675-11.4986-10.9931-11.4986-6.2823,0-10.9942,4.6553-10.9942,11.4986,0,6.8989,4.7119,11.4985,10.9942,11.4985C446.6563,217.0957,451.4238,212.4961,451.4238,205.5972Z"/><path class="cls-38" d="M485.1943,213.2256l2.2442,2.58a14.4052,14.4052,0,0,1-11.3311,4.8237c-9.1982,0-15.5371-6.2822-15.5371-15.0322s6.1143-14.9766,14.584-14.9766c7.9092,0,13.8545,5.7773,14.1348,14.0791l-24.2315,4.7114c1.458,4.7681,5.6094,7.6846,11.1065,7.6846A11.4682,11.4682,0,0,0,485.1943,213.2256ZM464.44,205.3164a8.5942,8.5942,0,0,0,.0567,1.2344l20.81-4.0386a10.0051,10.0051,0,0,0-10.1523-8.47C468.8721,194.0425,464.44,198.6416,464.44,205.3164Z"/><path class="cls-38" d="M508.0283,216.9834l1.7949-3.1406a17.8269,17.8269,0,0,0,10.4893,3.3091c5.6094,0,7.9092-1.9073,7.9092-4.8238,0-7.6845-19.127-1.6269-19.127-13.2939,0-4.8238,4.15-8.4136,11.667-8.4136,3.8135,0,7.9649,1.0659,10.4326,2.7485l-1.7392,3.1973a15.1215,15.1215,0,0,0-8.6934-2.5239c-5.3291,0-7.6846,2.0752-7.6846,4.88,0,7.9648,19.127,1.9629,19.127,13.2934,0,5.1045-4.4873,8.4136-12.1719,8.4136C515.1523,220.6294,510.44,219.0591,508.0283,216.9834Z"/><path class="cls-38" d="M554.083,218.5542a9.2318,9.2318,0,0,1-6.1709,2.0752c-5.5527,0-8.6377-3.1411-8.6377-8.5815V184.3945h3.9824v6.4507h8.919V194.21h-8.919v17.6128c0,3.4776,1.7393,5.3848,5.0489,5.3848a6.4883,6.4883,0,0,0,4.375-1.5146Z"/><path class="cls-38" d="M557.2813,205.5972c0-8.75,6.3945-14.9766,15.0322-14.9766s14.9765,6.2261,14.9765,14.9766-6.3379,15.0322-14.9765,15.0322A14.5578,14.5578,0,0,1,557.2813,205.5972Zm25.9707,0c0-6.8994-4.6563-11.4986-10.9385-11.4986S561.32,198.6978,561.32,205.5972s4.711,11.4985,10.9932,11.4985S583.252,212.4961,583.252,205.5972Z"/><path class="cls-38" d="M610.291,190.6206v3.8706c-.3359,0-.6728-.0561-.9531-.0561-6.17,0-9.9287,3.9262-9.9287,10.8813v15.0327h-3.9824V190.8452h3.8144v5.7774C601.0918,192.6963,604.8506,190.6206,610.291,190.6206Z"/><path class="cls-38" d="M638.8438,213.2256l2.2441,2.58a14.4052,14.4052,0,0,1-11.3311,4.8237c-9.1982,0-15.5371-6.2822-15.5371-15.0322s6.1143-14.9766,14.584-14.9766c7.9092,0,13.8545,5.7773,14.1348,14.0791l-24.2315,4.7114c1.459,4.7681,5.6094,7.6846,11.1065,7.6846A11.4685,11.4685,0,0,0,638.8438,213.2256Zm-20.754-7.9092a8.5942,8.5942,0,0,0,.0567,1.2344l20.81-4.0386a10.0045,10.0045,0,0,0-10.1524-8.47C622.5215,194.0425,618.09,198.6416,618.09,205.3164Z"/><path class="cls-41" d="M446.8881,131.4667a46.8885,46.8885,0,1,1-47.0672-46.8034A46.9486,46.9486,0,0,1,446.8881,131.4667Zm-59.44-9.6832v1.5394q0,21.2264.0018,42.4526c.0005,2.8966,1.2818,4.1753,4.2163,4.1765q10.1076.0041,20.2153-.0217c2.8792-.0087,4.1994-1.3418,4.2-4.2065q.0064-19.8722,0-39.7441c-.0008-2.8427-1.3486-4.1771-4.2324-4.1873-3.5037-.0125-7.0074-.0078-10.5111-.0086C396.77,121.7827,392.2016,121.7835,387.4478,121.7835Zm12.6329-8.6432c0-2.2962.0492-4.4394-.0224-6.5786a1.55,1.55,0,0,0-1.6662-1.5817c-2.5107-.0239-5.0218-.0155-7.5325-.0013a1.5264,1.5264,0,0,0-1.6866,1.4152c-.1,2.2188-.0332,4.4452-.0332,6.7464Zm-.3543,2.13.144-.364H389.3255c-.2464.6842-.2833,1.4755-.647,1.677-1.5264.8458-1.3384,2.1214-1.1682,3.5253h14.5328a23.783,23.783,0,0,0-.9408-3.0783A9.265,9.265,0,0,0,399.7264,115.27Zm-2.0925-12.1032a12.65,12.65,0,0,0-.6923-1.8265,6.6783,6.6783,0,0,1-.4675-5.5738c.7523-2.3994.61-2.6178-1.9537-2.5887-.2239.0026-.4482-.0045-.6715.0079-1.6212.09-1.9039.4867-1.3181,2.0112a7.4112,7.4112,0,0,1-.3294,6.349,10.0912,10.0912,0,0,0-.51,1.6209Zm-11.9137,38.38c-1.367.399-1.7182.7051-1.7441,1.7006-.0453,1.7429-.0629,3.49.0081,5.231a1.5851,1.5851,0,0,0,1.736,1.665Z"/></g></g></svg>