<svg xmlns="http://www.w3.org/2000/svg" width="800" height="800" viewBox="0 0 800 800"><defs><style>.cls-1{fill:#fff;}.cls-2{fill:#592d0d;}.cls-10,.cls-11,.cls-12,.cls-13,.cls-14,.cls-15,.cls-2,.cls-3,.cls-4,.cls-5,.cls-6,.cls-7,.cls-8,.cls-9{fill-rule:evenodd;}.cls-3{fill:#4a250a;}.cls-4{fill:#b2d8de;}.cls-5{fill:#e0ac7e;}.cls-6{fill:#f2c196;}.cls-7{fill:#ebb688;}.cls-8{fill:#ff3705;}.cls-9{fill:#ff5527;}.cls-10{fill:#f0fafc;}.cls-11{fill:#096385;}.cls-12{fill:#08426a;}.cls-13{fill:#0174a3;}.cls-14{fill:#0b5975;}.cls-15{fill:#0a6d94;}</style></defs><title>icon</title><g id="Objects"><path class="cls-1" d="M164.61,139.3083H136.0927c.88-2.8773,1.285-5.5235,2.4486-7.7779,5.1419-9.9622,5.592-20.0257,1.58-30.4667-2.8109-7.3156-1.4545-9.2175,6.3251-9.6506,1.0716-.06,2.148-.0258,3.2222-.038,12.3025-.14,12.9855.9084,9.3752,12.4219-2.8668,9.1416-2.7281,18.127,2.2433,26.7466C162.7,132.9929,163.3429,135.886,164.61,139.3083Z"/><path class="cls-2" d="M531.5574,262.3893c4.1993-54.7561,22.7639-112.1619,9.4242-162.9857C509.8693,26.7992,362.9019-7.4411,292.27,5.4159c-44.1529,74.2929-25.9086,165.9346-17.7882,250.5905Z"/><path class="cls-3" d="M402.2537,259.1734V12.2437c60.2691,14.1384,120.1521,43.8046,138.7334,87.16,13.3287,50.8238-5.23,108.23-9.43,162.9857Z"/><path class="cls-4" d="M400,776.09a969.9878,969.9878,0,0,0,115.2743-5.0947v-347.74l-12.9437-5.6543c-28.4938-12.471-63.772-26.8107-102.3306-32.0523Z"/><path class="cls-4" d="M400,776.09a969.9671,969.9671,0,0,1-115.2743-5.0947v-347.74l12.9381-5.6543c28.4994-12.471,63.7776-26.8107,102.3362-32.0523Z"/><path class="cls-5" d="M317.69,317.1287H482.3043V416.428c-54.87,43.61-109.7446,45.3487-164.6142,0Z"/><path class="cls-6" d="M332.219,113.26c-23.3234-4.5575-45.6412,19.2987-49.8293,42.6755a500.1217,500.1217,0,0,0-7.5176,65.4884c-.624-.1023,2.7977-.1624-1.9055-.1624-4.6987,0-20.0218,3.4818-19.2932,23.85.5373,15.28,13.8281,59.6773,31.2914,52.4045C310.2538,365.2627,344.2939,403.501,400,417.0532c.9389-1.7876,1.3682-.4183,2.2537-.9945V120.3754C379.7724,120.4566,357.3022,118.164,332.219,113.26Z"/><path class="cls-7" d="M470.0291,113.26c23.3234-4.5575,45.6468,19.2987,49.8238,42.6755a499.95,499.95,0,0,1,7.5331,65.4884c.614-.1023-2.8132-.1624,1.8955-.1624,4.7043,0,20.0263,3.4818,19.2988,23.85-.5484,15.28-13.8292,59.6773-31.2914,52.4045C491.6573,366.186,457.0743,403.9949,400,417.0532V120.3754C422.4758,120.4566,444.946,118.164,470.0291,113.26Z"/><polygon class="cls-8" points="400 449.788 428.146 449.788 416.23 494.453 400.016 494.453 399.983 494.453 383.77 494.453 371.853 449.788 400 449.788"/><polygon class="cls-9" points="416.23 493.1 427.744 662.104 400 712.785 372.255 662.104 383.77 493.1 416.23 493.1"/><path class="cls-10" d="M400,449.7885l-48.292,46.956-54.0442-79.1429L317.69,406.6891C337.9111,428.0191,365.6284,441.5869,400,449.7885Z"/><path class="cls-11" d="M400,708.218,281.4608,424.6953c-107.1161,46.2063-175.9172,81.826-188.0133,217.507C142.1244,729.0374,258.3221,800.1144,400,800Z"/><path class="cls-12" d="M190.3086,741.0456c4.2849,3.0046,9.1627,5.4429,13.6656,8.2728l-.3259-56.141Z"/><polygon class="cls-13" points="400 708.218 400 779.866 288.43 580.049 321.617 539.801 271.076 522.952 248.264 439.214 303.465 415.081 400 708.218"/><path class="cls-10" d="M400,449.7885l48.292,46.956,54.0386-79.1429-20.0263-10.9125C462.0823,428.0191,434.3705,441.5869,400,449.7885Z"/><path class="cls-14" d="M400,708.218,518.5381,424.6953c107.1161,46.2063,175.9183,81.826,188.0144,217.507C657.8744,729.0374,541.6824,800.1144,400,800Z"/><path class="cls-12" d="M609.697,741.0456c-4.2916,3.0046-9.175,5.4429-13.6723,8.2728l.3259-56.141Z"/><polygon class="cls-15" points="400 708.218 400 779.866 511.57 580.049 478.378 539.801 528.923 522.952 551.736 439.214 498.528 415.521 400 708.218"/></g></svg>